HIERARCHY
ROOT Hips
{
	OFFSET 0.000000 0.000000 0.000000
	CHANNELS 6 Xposition Yposition Zposition Xrotation Yrotation Zrotation
	JOINT LeftUpLeg_virtual
	{
		OFFSET 0.000000 0.000000 0.000000
		CHANNELS 3 Xrotation Yrotation Zrotation
		JOINT LeftUpLeg
		{
			OFFSET 11.394100 -6.187798 -0.413800
			CHANNELS 3 Xrotation Yrotation Zrotation
			JOINT LeftLeg
			{
				OFFSET 0.430247 -32.302673 3.732800
				CHANNELS 3 Xrotation Yrotation Zrotation
				JOINT LeftFoot
				{
					OFFSET -0.430247 -48.264931 -6.423300
					CHANNELS 3 Xrotation Yrotation Zrotation
					JOINT LeftToeBase
					{
						OFFSET 4.230900 -16.068199 23.438400
						CHANNELS 3 Xrotation Yrotation Zrotation
						JOINT LeftToe_End
						{
							OFFSET 4.510700 0.695400 19.974600
							CHANNELS 3 Xrotation Yrotation Zrotation
							End Site
							{
								OFFSET 0 0 0
							}
						}
					}
				}
			}
		}
	}
	JOINT RightUpLeg_virtual
	{
		OFFSET 0.000000 0.000000 0.000000
		CHANNELS 3 Xrotation Yrotation Zrotation
		JOINT RightUpLeg
		{
			OFFSET -11.333700 -6.187798 -0.413800
			CHANNELS 3 Xrotation Yrotation Zrotation
			JOINT RightLeg
			{
				OFFSET -0.430392 -32.302628 3.733000
				CHANNELS 3 Xrotation Yrotation Zrotation
				JOINT RightFoot
				{
					OFFSET 0.430392 -48.264973 -6.423500
					CHANNELS 3 Xrotation Yrotation Zrotation
					JOINT RightToeBase
					{
						OFFSET -4.230900 -16.068199 23.438400
						CHANNELS 3 Xrotation Yrotation Zrotation
						JOINT RightToe_End
						{
							OFFSET -4.510700 0.695400 19.974600
							CHANNELS 3 Xrotation Yrotation Zrotation
							End Site
							{
								OFFSET 0 0 0
							}
						}
					}
				}
			}
		}
	}
	JOINT Spine_virtual
	{
		OFFSET 0.000000 0.000000 0.000000
		CHANNELS 3 Xrotation Yrotation Zrotation
		JOINT Spine
		{
			OFFSET -0.002400 12.777504 0.315300
			CHANNELS 3 Xrotation Yrotation Zrotation
			JOINT Spine1
			{
				OFFSET -0.002067 5.816869 0.032633
				CHANNELS 3 Xrotation Yrotation Zrotation
				JOINT Spine1_split
				{
					OFFSET -0.002067 5.816869 0.032633
					CHANNELS 3 Xrotation Yrotation Zrotation
					JOINT Spine2
					{
						OFFSET -0.002067 5.816869 0.032633
						CHANNELS 3 Xrotation Yrotation Zrotation
						JOINT Neck_virtual
						{
							OFFSET 0.000000 0.000000 0.000000
							CHANNELS 3 Xrotation Yrotation Zrotation
							JOINT Neck
							{
								OFFSET -0.003700 21.199493 -0.826900
								CHANNELS 3 Xrotation Yrotation Zrotation
								JOINT Head
								{
									OFFSET 0.000000 20.442200 4.834800
									CHANNELS 3 Xrotation Yrotation Zrotation
									JOINT HeadTop_End
									{
										OFFSET 0.000000 34.668396 4.968400
										CHANNELS 3 Xrotation Yrotation Zrotation
										End Site
										{
											OFFSET 0 0 0
										}
									}
								}
							}
						}
						JOINT LeftShoulder_virtual
						{
							OFFSET 0.000000 0.000000 0.000000
							CHANNELS 3 Xrotation Yrotation Zrotation
							JOINT LeftShoulder
							{
								OFFSET 3.288150 8.794197 -1.372250
								CHANNELS 3 Xrotation Yrotation Zrotation
								JOINT LeftShoulder_split
								{
									OFFSET 3.288150 8.794197 -1.372250
									CHANNELS 3 Xrotation Yrotation Zrotation
									JOINT LeftArm
									{
										OFFSET 11.953299 -2.279007 -0.146200
										CHANNELS 3 Xrotation Yrotation Zrotation
										JOINT LeftForeArm
										{
											OFFSET 18.448900 0.000000 0.000000
											CHANNELS 3 Xrotation Yrotation Zrotation
											JOINT LeftHand
											{
												OFFSET 29.527798 0.000000 0.000000
												CHANNELS 3 Xrotation Yrotation Zrotation
												End Site
												{
													OFFSET 0 0 0
												}
											}
										}
									}
								}
							}
						}
						JOINT RightShoulder_virtual
						{
							OFFSET 0.000000 0.000000 0.000000
							CHANNELS 3 Xrotation Yrotation Zrotation
							JOINT RightShoulder
							{
								OFFSET -3.249400 8.794197 -1.372250
								CHANNELS 3 Xrotation Yrotation Zrotation
								JOINT RightShoulder_split
								{
									OFFSET -3.249400 8.794197 -1.372250
									CHANNELS 3 Xrotation Yrotation Zrotation
									JOINT RightArm
									{
										OFFSET -11.953299 -2.279007 -0.146200
										CHANNELS 3 Xrotation Yrotation Zrotation
										JOINT RightForeArm
										{
											OFFSET -18.448900 0.000000 0.000000
											CHANNELS 3 Xrotation Yrotation Zrotation
											JOINT RightHand
											{
												OFFSET -29.527802 0.000000 0.000000
												CHANNELS 3 Xrotation Yrotation Zrotation
												End Site
												{
													OFFSET 0 0 0
												}
											}
										}
									}
								}
							}
						}
					}
				}
			}
		}
	}
}
MOTION
Frames: 7
Frame Time: 0.03333333
1.722884 90.550720 0.947205 0.000000 0.000000 0.000000 1.091204 -63.920967 5.237958 -37.920766 2.897425 14.348832 41.540152 -6.098267 -3.951913 -8.877665 -4.641596 -13.209420 2.809857 1.504731 -0.318493 0.000000 0.000000 0.000000 -4.074162 -57.986100 2.534192 -30.970731 -1.679293 -29.401038 33.285551 -3.713931 -4.150475 -4.207597 1.304995 19.202517 -6.434451 3.339571 -8.820451 0.000000 0.000000 0.000000 -7.229427 -61.030035 -1.951736 7.573788 3.244969 -4.376195 6.866654 0.841982 -5.863495 2.414265 -1.752250 0.698269 0.000000 0.000000 0.000000 7.104936 1.259077 -5.001707 -13.902638 23.231920 3.955999 -1.494301 15.122592 1.765076 0.000000 0.000000 0.000000 6.529199 0.829491 -5.475184 -6.390297 -20.855382 -2.373084 -9.091135 0.791375 -2.587687 -13.895007 20.597624 -28.138419 0.138962 -32.197758 2.082529 0.000000 0.000000 0.000000 6.537551 1.264020 -5.291827 -4.180664 2.770256 6.321294 1.530522 -0.400353 0.250678 -38.082307 -21.717570 29.302765 -171.670753 60.956112 169.488795 0.000000 0.000000 0.000000 
-0.378365 90.889420 1.300751 0.000000 0.000000 0.000000 0.089948 -63.761660 4.432909 -37.172751 5.771893 16.006210 41.865112 -7.121885 -4.277704 -8.401764 -4.955984 -11.376965 2.445674 1.344593 0.124894 0.000000 0.000000 0.000000 -3.886601 -58.924875 2.467837 -32.673730 -1.442991 -28.695278 39.588244 -2.761290 -3.898932 -2.483849 2.814302 17.160580 -2.375105 3.117098 -9.073152 0.000000 0.000000 0.000000 -6.891425 -61.566307 -0.832350 7.279459 2.644083 -4.588014 5.995260 0.374934 -6.502194 0.679934 -2.264981 -0.214151 0.000000 0.000000 0.000000 6.015788 0.996355 -5.834313 -12.602234 23.125465 2.548780 -0.484483 15.277053 1.384304 0.000000 0.000000 0.000000 5.810096 0.532620 -5.986598 -6.036569 -20.172656 -1.289327 -9.050562 -1.019465 -0.825042 -15.812100 18.236077 -27.877853 0.664286 -34.687379 2.057607 0.000000 0.000000 0.000000 5.451721 0.750573 -5.851961 -4.422445 1.184111 6.008665 1.306784 -1.284388 0.767120 -39.055554 -22.126673 29.532785 -172.729378 57.313593 170.833345 0.000000 0.000000 0.000000 
-4.230464 91.366753 1.473915 0.000000 0.000000 0.000000 -0.179022 -62.158096 4.485370 -35.993103 9.706139 18.319493 40.317828 -7.498932 -5.132843 -7.900247 -4.633437 -10.214177 2.274583 1.154550 0.716692 0.000000 0.000000 0.000000 -2.945844 -59.373865 3.315188 -37.170456 -0.557956 -28.157593 49.141377 0.867210 -4.062157 2.958223 6.822493 21.150512 -6.021939 3.583881 -11.820468 0.000000 0.000000 0.000000 -4.790262 -61.507151 1.646383 7.156237 2.064381 -4.387796 4.610176 -0.406407 -8.159958 -0.616626 -2.023372 -0.442770 0.000000 0.000000 0.000000 4.369345 0.359971 -7.506559 -11.155558 22.699705 -0.117096 -0.046208 14.754508 2.100702 0.000000 0.000000 0.000000 4.399278 -0.083893 -7.483278 -5.582607 -18.268111 0.737019 -8.089953 -1.641259 0.362041 -18.401578 15.894376 -27.173500 0.537270 -38.864425 1.358869 0.000000 0.000000 0.000000 3.650602 -0.123151 -7.347187 -4.628472 0.035076 4.848779 2.513584 -0.398863 1.565910 -42.080013 -27.492288 29.773375 -173.548755 50.239163 172.413400 0.000000 0.000000 0.000000 
-9.174749 91.571312 1.474915 0.000000 0.000000 0.000000 0.607656 -60.076151 5.590846 -34.358604 14.009775 20.630578 37.706749 -7.529818 -6.049358 -7.348401 -4.173719 -10.459169 1.011402 0.940437 1.567152 0.000000 0.000000 0.000000 -0.983297 -58.768881 5.368215 -42.388765 0.938170 -27.745622 58.788374 5.346394 -5.075726 7.894209 11.736855 27.594012 -13.935439 4.603636 -15.164043 0.000000 0.000000 0.000000 -1.343918 -60.602875 5.191940 7.244662 1.526183 -3.997896 3.070209 -1.229515 -10.378250 -0.945881 -1.364804 -0.196254 0.000000 0.000000 0.000000 2.506739 -0.406876 -9.609304 -9.650303 21.968282 -3.499876 -0.338029 13.502711 3.518233 0.000000 0.000000 0.000000 2.605400 -0.806331 -9.560743 -5.346423 -15.450889 3.222636 -7.101923 -1.567263 1.023757 -21.605934 14.368326 -26.003647 -0.048917 -44.657833 0.292773 0.000000 0.000000 0.000000 1.490574 -1.003427 -9.400746 -4.835863 -0.343333 2.986719 4.697676 1.669385 1.777740 -47.540056 -35.421624 28.070218 -173.586867 43.875899 173.375869 0.000000 0.000000 0.000000 
-14.478416 91.283951 1.364380 0.000000 0.000000 0.000000 2.382994 -58.017778 7.823793 -32.311607 17.672778 22.478825 34.972512 -8.360974 -6.216657 -6.825120 -4.184450 -12.758510 -1.489432 0.825390 2.328215 0.000000 0.000000 0.000000 1.007356 -57.084474 7.856267 -46.184687 2.633019 -27.298156 65.249822 8.019909 -6.052876 10.082911 13.925443 31.398127 -17.454408 4.573440 -16.614486 0.000000 0.000000 0.000000 2.503765 -59.195023 9.105677 7.434047 1.044519 -3.629100 1.641650 -1.807923 -12.530261 -0.642906 -1.700780 0.252163 0.000000 0.000000 0.000000 0.816182 -1.011426 -11.569802 -8.327145 20.979775 -6.802769 -1.624815 12.161587 5.007201 0.000000 0.000000 0.000000 0.909306 -1.356130 -11.522184 -5.413449 -12.411110 6.144391 -5.915608 -1.219243 1.236217 -25.252336 13.844888 -24.393251 -0.298530 -51.600365 -0.456756 0.000000 0.000000 0.000000 -0.552671 -1.599344 -11.415323 -5.170904 0.206764 0.340956 6.182205 2.980929 1.444308 -55.796758 -42.303600 22.810132 -173.101896 40.360414 173.648448 0.000000 0.000000 0.000000 
-19.853567 90.339195 1.261837 0.000000 0.000000 0.000000 4.671980 -55.818416 10.766539 -29.711272 20.091997 23.454707 32.877959 -9.841119 -5.285547 -7.433037 -4.478604 -15.564531 -3.193073 0.933169 2.010525 0.000000 0.000000 0.000000 2.845035 -55.107250 10.580854 -48.268674 4.397855 -27.419497 66.606632 8.233034 -5.887081 9.773479 11.709909 30.883004 -12.378406 2.393395 -14.673960 0.000000 0.000000 0.000000 6.082968 -57.107181 12.599675 7.474757 0.571876 -3.394785 0.600124 -1.969341 -13.985083 -0.387561 -2.156737 1.165120 0.000000 0.000000 0.000000 -0.263749 -1.324256 -12.840887 -7.460249 19.820686 -9.462164 -3.873178 10.911586 5.824724 0.000000 0.000000 0.000000 -0.280699 -1.536079 -12.753514 -5.788734 -9.606647 9.051552 -5.155747 -0.863714 0.954516 -28.387380 14.748187 -22.911427 0.807674 -58.734067 0.055910 0.000000 0.000000 0.000000 -1.930104 -1.765556 -12.798433 -5.421798 1.823035 -3.082331 6.245744 2.526118 1.199661 -65.438308 -45.234953 14.806882 -172.268053 39.642049 173.181782 0.000000 0.000000 0.000000 
-25.102596 88.982552 1.007988 0.000000 0.000000 0.000000 6.586349 -53.602245 13.633041 -26.001381 20.611392 23.231743 31.567635 -12.089054 -3.401727 -8.622462 -4.766091 -17.908058 -3.158156 1.414786 -0.095459 0.000000 0.000000 0.000000 4.533158 -53.394724 13.348462 -48.881236 6.788844 -28.263521 63.099425 6.622347 -4.921895 8.759310 6.534029 27.372832 -4.035468 -0.244756 -9.716880 0.000000 0.000000 0.000000 9.095876 -54.372991 15.455637 7.298013 0.117976 -3.266598 0.170787 -1.742830 -14.321021 0.069507 -2.559284 1.631887 0.000000 0.000000 0.000000 -0.439452 -1.268157 -13.109956 -7.159071 18.556376 -11.056446 -7.068727 10.003798 5.412718 0.000000 0.000000 0.000000 -0.589888 -1.375040 -12.817304 -6.342266 -7.233975 11.376043 -4.752422 0.395589 0.796759 -30.571473 16.906988 -22.131269 3.747532 -65.260907 2.415035 0.000000 0.000000 0.000000 -2.289437 -1.537642 -13.139189 -5.446248 4.229912 -7.436184 5.626409 0.735415 1.494553 -72.203869 -43.583335 8.147915 -171.353791 40.415766 172.251907 0.000000 0.000000 0.000000 
